<svg xmlns="http://www.w3.org/2000/svg" width="24" height="20" viewBox="0 0 24 20" fill="none">
  <g clip-path="url(#clip0_1_289)">
    <path d="M21.4791 5.08308C21.4936 5.29349 21.4936 5.5039 21.4936 5.71624C21.4936 12.1865 16.5774 19.6487 7.58809 19.6487V19.6448C4.93261 19.6487 2.33229 18.8866 0.0968018 17.4496C0.482931 17.4961 0.870995 17.5194 1.26003 17.5204C3.46067 17.5223 5.59841 16.7825 7.3297 15.4202C5.23841 15.3804 3.40454 14.0142 2.7639 12.0197C3.49648 12.1613 4.25132 12.1322 4.97035 11.9354C2.69035 11.4738 1.05003 9.46673 1.05003 7.13576C1.05003 7.11443 1.05003 7.09407 1.05003 7.07371C1.72938 7.45283 2.49003 7.66324 3.26809 7.68651C1.12067 6.24856 0.458737 3.38625 1.75551 1.14837C4.2368 4.20752 7.89777 6.06725 11.8278 6.26408C11.4339 4.56337 11.972 2.78121 13.2416 1.58567C15.21 -0.268243 18.3058 -0.173221 20.1562 1.79801C21.2507 1.58179 22.2997 1.1794 23.2597 0.609262C22.8949 1.74275 22.1313 2.70558 21.1113 3.31741C22.08 3.20299 23.0265 2.94313 23.9178 2.54656C23.2616 3.53169 22.4352 4.3898 21.4791 5.08308Z" fill="#1D9BF0"/>
  </g>
  <defs>
    <clipPath id="clip0_1_289">
      <rect width="24" height="19.7802" fill="white" transform="translate(0 0.109894)"/>
    </clipPath>
  </defs>
</svg>